HIERARCHY
ROOT Hips
{
	OFFSET 50.509499 -14.927916 94.355598
	CHANNELS 6 Xposition Yposition Zposition Xrotation Yrotation Zrotation
	JOINT spine
	{
		OFFSET 0.000000 -0.448574 7.800591
		CHANNELS 3 Xrotation Yrotation Zrotation
		JOINT spine1
		{
			OFFSET 0.000000 -0.000002 10.136398
			CHANNELS 3 Xrotation Yrotation Zrotation
			JOINT spine2
			{
				OFFSET 0.000000 -0.000002 9.712509
				CHANNELS 3 Xrotation Yrotation Zrotation
				JOINT Neck
				{
					OFFSET 0.000000 -1.188875 24.936096
					CHANNELS 3 Xrotation Yrotation Zrotation
					JOINT Head
					{
						OFFSET 0.000000 0.000000 7.533844
						CHANNELS 3 Xrotation Yrotation Zrotation
						End Site
						{
							OFFSET 0.000000 6.014016 18.236099
						}
					}
				}
				JOINT RightShoulder
				{
					OFFSET -4.089649 0.569455 10.488800
					CHANNELS 3 Xrotation Yrotation Zrotation
					JOINT RightArm
					{
						OFFSET 0.000000 -0.000002 13.757004
						CHANNELS 3 Xrotation Yrotation Zrotation
						JOINT RightArmRoll
						{
							OFFSET 0.000000 -0.000001 6.944778
							CHANNELS 3 Xrotation Yrotation Zrotation
							JOINT RightForeArm
							{
								OFFSET 0.000000 -0.000004 20.227692
								CHANNELS 3 Xrotation Yrotation Zrotation
								JOINT RightForeArmRoll
								{
									OFFSET 0.000000 -0.000001 7.793121
									CHANNELS 3 Xrotation Yrotation Zrotation
									JOINT RightHand
									{
										OFFSET 0.000000 -0.000003 15.639099
										CHANNELS 3 Xrotation Yrotation Zrotation
										End Site
										{
											OFFSET 0.000000 0.000000 0.100006
										}
									}
								}
							}
						}
					}
				}
				JOINT LeftShoulder
				{
					OFFSET 4.089649 0.569455 10.488800
					CHANNELS 3 Xrotation Yrotation Zrotation
					JOINT LeftArm
					{
						OFFSET 0.000000 -0.000002 13.757004
						CHANNELS 3 Xrotation Yrotation Zrotation
						JOINT LeftArmRoll
						{
							OFFSET 0.000000 -0.000001 6.944778
							CHANNELS 3 Xrotation Yrotation Zrotation
							JOINT LeftForeArm
							{
								OFFSET 0.000000 -0.000004 20.227692
								CHANNELS 3 Xrotation Yrotation Zrotation
								JOINT LeftForeArmRoll
								{
									OFFSET 0.000000 -0.000001 7.793121
									CHANNELS 3 Xrotation Yrotation Zrotation
									JOINT LeftHand
									{
										OFFSET 0.000000 -0.000003 15.639099
										CHANNELS 3 Xrotation Yrotation Zrotation
										End Site
										{
											OFFSET 0.000000 0.000000 0.100006
										}
									}
								}
							}
						}
					}
				}
			}
		}
	}
	JOINT RightUpLeg
	{
		OFFSET -6.914162 1.063580 -1.267883
		CHANNELS 3 Xrotation Yrotation Zrotation
		JOINT RightUpLegRoll
		{
			OFFSET 0.000000 -0.000003 18.337799
			CHANNELS 3 Xrotation Yrotation Zrotation
			JOINT RightLeg
			{
				OFFSET 0.000000 0.000004 -22.708504
				CHANNELS 3 Xrotation Yrotation Zrotation
				JOINT RightLegRoll
				{
					OFFSET 0.000000 -0.000004 22.782799
					CHANNELS 3 Xrotation Yrotation Zrotation
					JOINT RightFoot
					{
						OFFSET 0.000000 -0.000003 18.962898
						CHANNELS 3 Xrotation Yrotation Zrotation
						JOINT RightToeBase
						{
							OFFSET 0.000000 -0.000003 15.852005
							CHANNELS 3 Xrotation Yrotation Zrotation
							End Site
							{
								OFFSET 0.006718 0.884892 7.677017
							}
						}
					}
				}
			}
		}
	}
	JOINT LeftUpLeg
	{
		OFFSET 6.914162 1.063580 -1.267883
		CHANNELS 3 Xrotation Yrotation Zrotation
		JOINT LeftUpLegRoll
		{
			OFFSET 0.000000 -0.000003 18.337898
			CHANNELS 3 Xrotation Yrotation Zrotation
			JOINT LeftLeg
			{
				OFFSET 0.000000 -0.000004 22.708405
				CHANNELS 3 Xrotation Yrotation Zrotation
				JOINT LeftLegRoll
				{
					OFFSET 0.000000 -0.000004 22.993393
					CHANNELS 3 Xrotation Yrotation Zrotation
					JOINT LeftFoot
					{
						OFFSET 0.000000 -0.000003 18.752197
						CHANNELS 3 Xrotation Yrotation Zrotation
						JOINT LeftToeBase
						{
							OFFSET 0.000000 -0.000003 15.852005
							CHANNELS 3 Xrotation Yrotation Zrotation
							End Site
							{
								OFFSET -0.030113 0.884892 7.677002
							}
						}
					}
				}
			}
		}
	}
}
MOTION
Frames: 11
Frame Time: 0.041667
49.332104 -13.822223 94.377090 -5.903335 1.573644 2.125212 -0.864026 0.949744 0.103713 2.282023 1.898784 0.205396 3.927475 1.901098 0.182676 15.995483 -16.069992 -3.307032 -10.701826 -20.066621 -2.833312 -17.252856 -24.260175 -19.929596 -142.973550 -152.899973 -93.115286 0.000002 0.000000 -0.000001 69.350585 -1.663435 3.194446 0.000002 0.000008 -3.000001 -5.000029 -7.998771 0.000106 3.516791 68.791200 -2.711679 -38.078858 100.055571 19.669067 -0.000001 -0.000001 -0.000000 14.281917 2.186354 0.700492 -0.000003 -0.000013 3.000001 -5.000414 7.998918 -0.000189 2.864077 -180.839968 -1.627210 -179.999991 0.000005 -1.105994 172.892906 -0.859342 -0.514147 -0.000005 -0.000001 0.112569 69.910873 6.579351 2.894638 25.456959 -7.355615 0.000001 2.211147 177.178099 4.845196 -0.000004 -0.000004 -1.328730 -11.284247 4.638749 0.676890 -0.000005 0.000001 -0.236257 73.020678 -7.447739 -0.221435 25.456962 7.355614 -0.000011 
49.324608 -13.818419 94.377502 -5.912464 1.572624 2.100590 -0.864419 0.950669 0.102999 2.281326 1.900624 0.203960 3.926779 1.902935 0.181168 15.968767 -16.100467 -3.320146 -10.636805 -20.058826 -2.831141 -17.258413 -24.197115 -19.936678 -142.910302 -153.084921 -93.292563 0.000002 -0.000002 -0.000000 69.859209 -1.713019 3.240455 0.000002 0.000007 -3.000001 -5.000028 -7.998775 0.000107 3.510020 68.801260 -2.702825 -38.060912 100.064450 19.663117 -0.000001 -0.000000 -0.000001 14.298489 2.192444 0.699847 -0.000003 -0.000013 3.000001 -5.000411 7.998919 -0.000187 2.870980 -180.839968 -1.625412 -179.999991 0.000005 -1.105994 172.891035 -0.861331 -0.514423 -0.000005 -0.000001 0.112709 69.911098 6.580715 2.891468 25.456960 -7.355613 0.000000 2.233277 177.176145 4.841180 -0.000005 -0.000004 -1.328810 -11.269633 4.640956 0.676343 -0.000006 0.000001 -0.235650 73.015351 -7.446568 -0.225811 25.456962 7.355616 -0.000011 
49.313305 -13.811320 94.412590 -5.922357 1.571690 2.076077 -0.864747 0.951489 0.102299 2.280598 1.902273 0.202907 3.926042 1.904563 0.180061 15.954038 -16.129452 -3.329555 -10.586521 -20.055942 -2.829342 -17.263385 -24.134530 -19.942918 -142.851112 -153.272478 -93.481104 0.000003 -0.000000 0.000001 70.361740 -1.759091 3.283046 -0.000000 0.000006 -3.000001 -5.000026 -7.998776 0.000107 3.509621 68.811178 -2.701059 -38.032870 100.072708 19.646874 -0.000001 -0.000000 -0.000003 14.314462 2.198693 0.699265 -0.000002 -0.000013 3.000000 -5.000414 7.998918 -0.000188 2.877711 -180.839954 -1.623790 -179.999991 0.000005 -1.107005 172.886759 -0.861323 -0.513476 -0.000005 -0.000001 0.112962 69.912819 6.581837 2.888764 25.456964 -7.355614 0.000001 2.255791 177.173181 4.837403 -0.000005 -0.000004 -1.328830 -11.255915 4.642825 0.675752 -0.000005 0.000001 -0.235105 73.010843 -7.445502 -0.229652 25.456960 7.355614 -0.000011 
49.304604 -13.816621 94.407990 -5.933008 1.570825 2.051533 -0.864959 0.952212 0.101591 2.279939 1.903733 0.202182 3.925385 1.906021 0.179288 15.947522 -16.156754 -3.336765 -10.546173 -20.057967 -2.828182 -17.267984 -24.072286 -19.948665 -142.795787 -153.461920 -93.681700 0.000002 0.000000 -0.000000 70.860767 -1.802957 3.322493 0.000001 0.000004 -3.000001 -5.000026 -7.998771 0.000106 3.515101 68.820583 -2.705867 -37.994847 100.080897 19.620207 -0.000001 0.000000 -0.000001 14.329634 2.204745 0.698738 -0.000004 -0.000013 2.999999 -5.000415 7.998919 -0.000187 2.885113 -180.840952 -1.622058 -179.999991 0.000005 -1.107005 172.881568 -0.862303 -0.513678 -0.000004 -0.000001 0.113265 69.915005 6.582742 2.886595 25.456962 -7.355615 0.000001 2.278571 177.172225 4.834189 -0.000005 -0.000004 -1.328839 -11.243598 4.644229 0.675131 -0.000005 0.000001 -0.234636 73.007291 -7.444647 -0.232760 25.456962 7.355615 -0.000011 
49.309902 -13.841221 94.376190 -5.944338 1.570017 2.026922 -0.865077 0.952853 0.100876 2.279331 1.905042 0.201738 3.924787 1.907319 0.178806 15.948410 -16.182619 -3.341914 -10.514778 -20.064191 -2.827518 -17.272312 -24.010369 -19.953967 -142.743727 -153.653028 -93.893169 0.000001 -0.000001 -0.000000 71.356400 -1.844544 3.358949 0.000002 0.000007 -2.999999 -5.000027 -7.998775 0.000106 3.525685 68.829770 -2.716374 -37.948220 100.088909 19.584659 -0.000001 -0.000000 -0.000001 14.344003 2.210680 0.698274 -0.000003 -0.000014 2.999999 -5.000412 7.998919 -0.000189 2.893153 -180.840938 -1.620116 -179.999991 0.000005 -1.107005 172.875681 -0.863281 -0.513890 -0.000004 -0.000001 0.113607 69.917675 6.583496 2.884669 25.456960 -7.355614 0.000001 2.301661 177.170285 4.831310 -0.000005 -0.000004 -1.328830 -11.232275 4.645275 0.674480 -0.000005 0.000001 -0.234227 73.004675 -7.443887 -0.235421 25.456964 7.355614 -0.000011 
49.296505 -13.834316 94.389091 -5.956252 1.569277 2.002255 -0.865115 0.953422 0.100158 2.278772 1.906213 0.201536 3.924221 1.908488 0.178571 15.955778 -16.207211 -3.345238 -10.491358 -20.073885 -2.827236 -17.276262 -23.948795 -19.958878 -142.694236 -153.845517 -94.114338 0.000004 0.000001 -0.000001 71.848426 -1.883894 3.392509 0.000001 0.000005 -3.000001 -5.000027 -7.998775 0.000107 3.540519 68.838772 -2.731624 -37.893893 100.096771 19.541171 -0.000001 0.000000 -0.000001 14.357773 2.216569 0.697862 -0.000003 -0.000013 3.000000 -5.000416 7.998918 -0.000187 2.901813 -180.840938 -1.618053 -179.999991 0.000005 -1.108002 172.869369 -0.864259 -0.513112 -0.000005 -0.000001 0.113977 69.920606 6.584091 2.883103 25.456959 -7.355616 0.000001 2.325114 177.169329 4.828733 -0.000004 -0.000004 -1.328810 -11.221651 4.646043 0.673802 -0.000004 0.000001 -0.233864 73.002640 -7.443224 -0.237555 25.456960 7.355615 -0.000011 
49.286003 -13.829021 94.378891 -5.968655 1.568614 1.977490 -0.865087 0.953935 0.099440 2.278242 1.907282 0.201528 3.923692 1.909547 0.178540 15.968945 -16.231069 -3.346774 -10.474903 -20.086321 -2.827191 -17.280034 -23.887441 -19.963456 -142.646752 -154.039330 -94.344071 0.000002 -0.000000 -0.000000 72.336942 -1.920923 3.423308 0.000003 0.000005 -2.999999 -5.000028 -7.998777 0.000107 3.558869 68.847801 -2.750771 -37.833480 100.104311 19.491354 0.000000 0.000000 0.000001 14.371042 2.222494 0.697479 -0.000003 -0.000013 3.000002 -5.000412 7.998917 -0.000187 2.911075 -180.840938 -1.615890 -179.999991 0.000005 -1.108002 172.862812 -0.865250 -0.513336 -0.000004 -0.000001 0.114366 69.923816 6.584596 2.881702 25.456960 -7.355615 0.000001 2.348947 177.167375 4.826274 -0.000005 -0.000004 -1.328760 -11.211626 4.646616 0.673114 -0.000004 0.000001 -0.233529 73.000966 -7.442651 -0.239481 25.456960 7.355614 -0.000010 
49.286606 -13.835616 94.380882 -5.981478 1.568011 1.952611 -0.865019 0.954406 0.098725 2.277733 1.908262 0.201675 3.923184 1.910516 0.178668 15.986971 -16.254255 -3.346779 -10.464439 -20.100763 -2.827273 -17.283538 -23.826411 -19.967592 -142.600526 -154.234277 -94.581133 0.000002 -0.000001 -0.000001 72.822029 -1.955576 3.451461 0.000001 0.000006 -3.000001 -5.000028 -7.998774 0.000107 3.579850 68.856879 -2.772835 -37.768221 100.111449 19.436543 -0.000001 0.000000 -0.000002 14.383911 2.228518 0.697135 -0.000002 -0.000013 3.000002 -5.000414 7.998917 -0.000188 2.920916 -180.840924 -1.613644 -179.999991 0.000005 -1.108999 172.856283 -0.866227 -0.513559 -0.000005 -0.000001 0.114764 69.927128 6.585037 2.880384 25.456965 -7.355614 0.000000 2.373197 177.166433 4.823883 -0.000005 -0.000004 -1.328680 -11.201700 4.647107 0.672408 -0.000004 0.000001 -0.233209 72.999423 -7.442095 -0.241201 25.456962 7.355615 -0.000010 
49.280106 -13.833618 94.380211 -5.994614 1.567496 1.927610 -0.864917 0.954847 0.098016 2.277214 1.909173 0.201933 3.922666 1.911434 0.178910 16.008959 -16.277232 -3.345365 -10.458984 -20.116495 -2.827353 -17.286992 -23.765689 -19.971676 -142.554845 -154.430113 -94.824261 -0.000000 -0.000001 -0.000003 73.303482 -1.987889 3.477061 0.000002 0.000007 -3.000000 -5.000029 -7.998774 0.000107 3.602710 68.866106 -2.796948 -37.699414 100.118122 19.378237 0.000000 -0.000000 -0.000001 14.396487 2.234717 0.696812 -0.000003 -0.000013 2.999999 -5.000411 7.998917 -0.000187 2.931314 -180.840911 -1.611337 -179.999991 0.000005 -1.108999 172.849958 -0.867204 -0.512782 -0.000004 -0.000001 0.115160 69.930421 6.585441 2.879160 25.456962 -7.355614 0.000001 2.397919 177.165490 4.821430 -0.000005 -0.000004 -1.328569 -11.191674 4.647592 0.671695 -0.000005 0.000001 -0.232887 72.997756 -7.441553 -0.243029 25.456960 7.355614 -0.000011 
49.265808 -13.835918 94.378090 -6.007975 1.567070 1.902455 -0.864801 0.955273 0.097315 2.276695 1.910052 0.202258 3.922147 1.912303 0.179225 16.034310 -16.300328 -3.342633 -10.457540 -20.132669 -2.827294 -17.290178 -23.705293 -19.975419 -142.509206 -154.626808 -95.072518 0.000006 0.000000 -0.000002 73.781302 -2.017723 3.500253 0.000002 0.000008 -3.000001 -5.000027 -7.998771 0.000106 3.626622 68.875716 -2.822186 -37.628656 100.124153 19.317843 -0.000001 -0.000000 -0.000000 14.408757 2.241183 0.696504 -0.000001 -0.000013 3.000001 -5.000410 7.998917 -0.000189 2.942247 -180.841921 -1.609038 -179.999991 0.000005 -1.108999 172.844111 -0.868183 -0.512994 -0.000004 -0.000001 0.115544 69.933603 6.585843 2.878042 25.456959 -7.355615 0.000000 2.423132 177.164534 4.818791 -0.000005 -0.000004 -1.328420 -11.181348 4.648169 0.670986 -0.000004 0.000001 -0.232547 72.995857 -7.440937 -0.244962 25.456964 7.355615 -0.000011 
49.253403 -13.840317 94.378197 -6.021493 1.566722 1.877132 -0.864690 0.955697 0.096627 2.276146 1.910922 0.202608 3.921599 1.913163 0.179568 16.062103 -16.323809 -3.338755 -10.459123 -20.148674 -2.826986 -17.293279 -23.645007 -19.979043 -142.462802 -154.823982 -95.324483 0.000003 -0.000001 -0.000001 74.255542 -2.045097 3.521141 0.000002 0.000007 -3.000001 -5.000028 -7.998774 0.000106 3.650778 68.885811 -2.847635 -37.556840 100.129562 19.256569 -0.000001 0.000000 -0.000001 14.420937 2.247976 0.696210 -0.000003 -0.000013 3.000000 -5.000412 7.998918 -0.000190 2.953699 -180.841908 -1.606687 -179.999991 0.000005 -1.109996 172.838934 -0.869162 -0.512200 -0.000004 -0.000001 0.115907 69.936697 6.586274 2.876636 25.456959 -7.355615 0.000001 2.448889 177.162581 4.815811 -0.000005 -0.000004 -1.328230 -11.170422 4.648942 0.670291 -0.000005 0.000001 -0.232174 72.993357 -7.440224 -0.247223 25.456965 7.355614 -0.000011 
